<?xml version="1.0" standalone="no"?>
<!DOCTYPE svg PUBLIC "-//W3C//DTD SVG 20010904//EN"
 "http://www.w3.org/TR/2001/REC-SVG-20010904/DTD/svg10.dtd">
<svg version="1.0" xmlns="http://www.w3.org/2000/svg"
 width="219.000000pt" height="198.000000pt" viewBox="0 0 219.000000 198.000000"
 preserveAspectRatio="xMidYMid meet">
<metadata>
Created by potrace 1.16, written by Peter Selinger 2001-2019
</metadata>
<g transform="translate(0.000000,198.000000) scale(0.100000,-0.100000)"
fill="#000000" stroke="none">
<path d="M1102 1750 c-186 -39 -368 -171 -462 -336 -23 -41 -40 -77 -37 -81 3
-3 31 -1 61 3 53 9 55 10 108 84 62 86 125 139 223 185 207 97 433 66 614 -85
59 -49 62 -50 126 -50 36 0 65 4 65 9 0 21 -134 143 -200 182 -110 65 -204 91
-340 95 -63 2 -135 -1 -158 -6z"/>
<path d="M1579 1410 c-158 -18 -312 -63 -465 -136 l-74 -35 -78 27 c-66 23
-94 28 -192 28 -166 1 -282 -34 -397 -122 l-53 -39 56 -12 c31 -6 80 -24 109
-41 51 -29 125 -100 125 -119 0 -6 -15 -11 -34 -13 l-33 -3 30 -102 c17 -57
35 -103 41 -103 6 0 24 12 39 26 16 14 31 24 34 21 10 -11 -16 -128 -40 -182
-14 -29 -41 -70 -61 -92 -20 -22 -36 -43 -36 -47 0 -3 26 -6 58 -6 223 1 449
139 543 332 l22 46 96 22 c200 46 371 129 538 259 100 79 260 248 246 262 -27
25 -341 44 -474 29z m208 -20 c41 0 41 0 48 -42 4 -24 16 -60 26 -80 11 -21
19 -44 19 -52 0 -8 -28 -38 -62 -66 -247 -206 -505 -295 -900 -307 -197 -6
-215 -4 -198 28 17 30 88 99 103 99 8 0 19 -12 26 -26 16 -37 24 -25 9 16 -11
32 -10 34 33 72 46 41 137 98 155 98 6 0 22 -31 35 -70 13 -38 25 -68 27 -66
3 4 -21 99 -33 129 -6 15 -1 17 47 17 64 0 90 -16 119 -71 26 -51 71 -79 129
-79 57 0 109 27 135 71 16 27 19 49 17 121 -2 66 2 98 14 123 9 19 20 35 24
35 4 0 10 -22 14 -49 7 -50 26 -115 32 -109 2 2 -3 28 -11 58 -19 72 -19 114
1 131 18 15 97 29 129 23 11 -2 39 -4 62 -4z m-340 -137 c85 -56 63 -205 -34
-232 -132 -37 -228 125 -130 217 46 44 111 49 164 15z m-527 6 c27 -6 50 -14
50 -17 0 -4 -33 -24 -74 -45 -40 -20 -100 -62 -134 -92 -52 -48 -61 -53 -66
-37 -10 30 -49 61 -101 81 l-47 18 28 20 c105 74 221 98 344 72z m178 -491
c-40 -76 -115 -152 -196 -202 -62 -38 -203 -80 -244 -74 -20 3 -16 7 22 27 69
37 157 133 196 215 l34 71 83 11 c45 6 95 12 110 13 l28 1 -33 -62z"/>
<path d="M1299 1221 c-24 -24 -29 -38 -29 -76 0 -136 189 -143 207 -8 5 39 2
46 -30 78 -29 29 -42 35 -77 35 -33 0 -48 -6 -71 -29z"/>
<path d="M1863 1113 c-44 -32 -53 -43 -53 -70 0 -127 -76 -285 -184 -383 -152
-137 -365 -181 -561 -115 l-46 16 -51 -32 -51 -33 59 -28 c136 -64 334 -76
474 -28 282 97 479 366 468 639 l-3 73 -52 -39z"/>
<path d="M198 909 c-261 -131 -264 -143 -18 -68 69 20 154 45 190 55 36 9 67
19 69 20 5 4 -33 94 -39 93 -3 0 -94 -45 -202 -100z"/>
<path d="M335 809 c-353 -161 -335 -151 -335 -176 0 -13 4 -23 9 -23 7 0 408
113 484 136 9 3 17 12 17 20 0 24 -39 94 -53 94 -6 -1 -61 -23 -122 -51z"/>
<path d="M293 587 c-123 -61 -221 -112 -219 -114 4 -4 275 71 413 114 l81 25
-16 44 c-9 24 -21 44 -27 43 -5 0 -110 -50 -232 -112z"/>
</g>
</svg>
